<svg width="198" height="236" viewBox="0 0 198 236" fill="none" xmlns="http://www.w3.org/2000/svg">
<path fill-rule="evenodd" clip-rule="evenodd" d="M72.2612 99.7811H125.736V136.657C125.736 151.407 113.74 163.41 98.9984 163.41C84.2568 163.41 72.2612 151.407 72.2612 136.657V99.7811Z" fill="#FF7D4E"/>
<path fill-rule="evenodd" clip-rule="evenodd" d="M161.869 99.7811V136.657C161.869 171.363 133.686 199.562 99 199.562C64.3139 199.562 36.1314 171.363 36.1314 136.657V99.7811H0V136.657C0 191.319 44.3693 235.715 99 235.715C153.631 235.715 198 191.319 198 136.657V99.7811H161.869Z" fill="#725CF0"/>
<path fill-rule="evenodd" clip-rule="evenodd" d="M99.0028 0C64.3167 0 36.1342 28.1989 36.1342 62.9053V99.7809H72.2656V62.9053C72.2656 48.1551 84.2612 36.1525 99.0028 36.1525C113.744 36.1525 125.74 48.1551 125.74 62.9053V99.7809H161.871V62.9053C161.871 28.1989 133.689 0 99.0028 0Z" fill="#FDC672"/>
</svg>
